<?xml version="1.0" standalone="no"?>
<!DOCTYPE svg PUBLIC "-//W3C//DTD SVG 20010904//EN"
 "http://www.w3.org/TR/2001/REC-SVG-20010904/DTD/svg10.dtd">
<svg version="1.0" xmlns="http://www.w3.org/2000/svg"
 width="260.000000pt" height="260.000000pt" viewBox="0 0 260.000000 260.000000"
 preserveAspectRatio="xMidYMid meet">
<metadata>
Created by potrace 1.11, written by Peter Selinger 2001-2013
</metadata>
<g transform="translate(0.000000,260.000000) scale(0.100000,-0.100000)"
fill="#000000" stroke="none">
<path d="M824 2570 c-133 -28 -318 -201 -473 -441 -133 -205 -150 -293 -94
-504 19 -71 39 -148 44 -170 5 -22 13 -51 18 -65 5 -14 14 -43 19 -65 15 -53
81 -273 92 -305 116 -331 180 -466 316 -670 85 -127 100 -143 164 -175 57 -29
295 -110 351 -120 18 -3 35 -8 39 -10 21 -13 176 -38 240 -39 89 -1 119 12
188 83 63 64 83 91 137 188 25 44 51 85 58 90 7 5 46 19 87 32 192 60 229 99
327 349 52 133 54 140 59 207 10 146 -82 259 -269 330 l-49 18 7 91 c3 50 8
121 10 157 2 37 6 104 10 151 11 134 9 313 -3 344 -5 16 -20 61 -31 100 -18
63 -28 78 -76 122 -106 97 -366 204 -626 258 -196 40 -463 62 -545 44z m1299
-1641 c30 -34 35 -47 33 -82 -2 -40 -20 -83 -48 -117 -19 -23 -74 -60 -80 -54
-3 3 -2 22 2 42 5 20 11 57 15 82 3 25 8 58 11 74 3 15 5 44 6 62 2 45 19 43
61 -7z"/>
</g>
</svg>
